<mxfile host="app.diagrams.net" modified="2021-02-12T17:32:14.787Z" agent="5.0 (Windows NT 10.0; Win64; x64) AppleWebKit/537.36 (KHTML, like Gecko) Chrome/88.0.4324.146 Safari/537.36" etag="iKfJcOeN252fp2myrBGL" version="14.3.0" type="github">
  <diagram id="1USt2j1T6vQlMml8hkWQ" name="Page-1">
    <mxGraphModel dx="716" dy="400" grid="1" gridSize="10" guides="1" tooltips="1" connect="1" arrows="1" fold="1" page="1" pageScale="1" pageWidth="1169" pageHeight="827" math="0" shadow="0">
      <root>
        <mxCell id="0" />
        <mxCell id="1" parent="0" />
        <mxCell id="fLO7NtvmyKvN6UGDWAe8-1" value="JUnit focuses on verifying behaviors and boundaries&amp;nbsp;" style="text;html=1;strokeColor=none;fillColor=none;align=center;verticalAlign=middle;whiteSpace=wrap;rounded=0;" vertex="1" parent="1">
          <mxGeometry x="50" y="300" width="310" height="20" as="geometry" />
        </mxCell>
        <mxCell id="fLO7NtvmyKvN6UGDWAe8-2" value="JMeter pays more attention to workload capacity" style="text;html=1;strokeColor=none;fillColor=none;align=center;verticalAlign=middle;whiteSpace=wrap;rounded=0;" vertex="1" parent="1">
          <mxGeometry x="40" y="330" width="310" height="20" as="geometry" />
        </mxCell>
        <mxCell id="fLO7NtvmyKvN6UGDWAe8-3" value="Coverage" style="text;html=1;strokeColor=none;fillColor=none;align=center;verticalAlign=middle;whiteSpace=wrap;rounded=0;" vertex="1" parent="1">
          <mxGeometry x="40" y="360" width="100" height="20" as="geometry" />
        </mxCell>
      </root>
    </mxGraphModel>
  </diagram>
</mxfile>
